<svg width="32" height="32" viewBox="0 0 32 32" fill="none" xmlns="http://www.w3.org/2000/svg">
  <rect width="32" height="32" rx="8" fill="url(#gradient)" />
  <path d="M8 12C8 10.8954 8.89543 10 10 10H22C23.1046 10 24 10.8954 24 12V20C24 21.1046 23.1046 22 22 22H10C8.89543 22 8 21.1046 8 20V12Z" fill="white" fill-opacity="0.9"/>
  <path d="M12 14H14V16H12V14Z" fill="#3B82F6"/>
  <path d="M16 14H20V16H16V14Z" fill="#3B82F6"/>
  <path d="M12 18H16V20H12V18Z" fill="#3B82F6"/>
  <path d="M18 18H20V20H18V18Z" fill="#3B82F6"/>
  <defs>
    <linearGradient id="gradient" x1="0" y1="0" x2="32" y2="32" gradientUnits="userSpaceOnUse">
      <stop stop-color="#3B82F6"/>
      <stop offset="1" stop-color="#2563EB"/>
    </linearGradient>
  </defs>
</svg>